<svg xmlns="http://www.w3.org/2000/svg" width="1365" height="496" viewBox="0 0 1365 496">
  <defs>
    <style>
      .cls-1, .cls-2 {
        fill-rule: evenodd;
      }

      .cls-2 {
        fill: #fe1614;
      }
    </style>
  </defs>
  <path id="Forma_2" data-name="Forma 2" class="cls-1" d="M1196,119v21h52V273h25V140h51V119H1196Z"/>
  <path id="Forma_1" data-name="Forma 1" class="cls-2" d="M41,231a22.375,22.375,0,0,1,10-17L424,18s10.918-5.719,23-1c12.622,4.359,12,16,12,16L442,460s0.011,7.981-9,16c-13.414,10.22-23,3-23,3L50,251S39.438,245.528,41,231Z"/>
  <path id="MYNAT" class="cls-1" d="M574.03,119.458H550.186V273.283h24.843L575,169l43.472,82.912H636.2L680,167l-0.358,106.283h24.843V119.458H680.641l-53.3,101.562Zm261.909,0-39.7,69.4-39.7-69.4H728.2l55.3,91.3v62.525h25.467V210.758l55.3-91.3H835.939Zm73.529,153.719L909,160l85.981,113.177h23.349V119.458H993.109L993,234,907.346,119.458h-23.1V273.177h25.217Zm161.292,0.106,50.31-124.1,50.31,124.1h27.46l-66.91-153.825h-21.72l-66.92,153.825h27.47Z"/>
  <path id="Forma_3" data-name="Forma 3" class="cls-1" d="M1077,219h88v20h-89Z"/>
  <path id="Chile" class="cls-2" d="M568.057,388.368a20.5,20.5,0,0,1-12.579,3.825,23.661,23.661,0,0,1-11.347-2.807,17.077,17.077,0,0,1-7.725-8.484,32.915,32.915,0,0,1-2.483-13.285,32.176,32.176,0,0,1,2.1-11.455,17.677,17.677,0,0,1,7.269-8.85,23.508,23.508,0,0,1,12.874-3.3,19.52,19.52,0,0,1,11.12,2.971q4.419,2.97,6.745,9.48l8.7-1.831a23.714,23.714,0,0,0-9.525-12.817q-6.836-4.557-16.862-4.557a36.356,36.356,0,0,0-16.2,3.6A25.883,25.883,0,0,0,528.8,351.4a32.047,32.047,0,0,0-3.988,16.255,36.832,36.832,0,0,0,3.532,15.991,25.306,25.306,0,0,0,10.3,11.373q6.768,3.927,17.569,3.927,10.435,0,17.659-5.107t10-14.831l-8.841-1.994Q573.207,384.545,568.057,388.368Zm33.86,9.563V374.29a19.009,19.009,0,0,1,1.367-7.976,10,10,0,0,1,4.581-4.577,14.52,14.52,0,0,1,6.858-1.689q4.877,0,7.543,2.5t2.666,8v27.385h8.2V370.546q0-6.348-1.709-9.684a11.8,11.8,0,0,0-5.674-5.229,21.5,21.5,0,0,0-9.343-1.892,19.306,19.306,0,0,0-14.492,5.941v-21.4h-8.2v59.652h8.2ZM653.87,346.7v-8.423h-8.2V346.7h8.2Zm0,51.229V354.718h-8.2v43.213h8.2Zm20.508,0V338.279h-8.2v59.652h8.2Zm40.788-7.162a13.615,13.615,0,0,1-7.7,2.116,14.258,14.258,0,0,1-10.117-3.784q-4.057-3.785-4.512-10.9h36.094q0.045-1.3.046-1.953,0-10.7-6.153-16.6t-15.859-5.9q-10.026,0-16.315,6.022t-6.289,16.927q0,10.539,6.22,16.378t16.84,5.839q8.43,0,13.854-3.662a18.429,18.429,0,0,0,7.428-10.294l-8.476-.936A14.117,14.117,0,0,1,715.166,390.769Zm-17.614-27.628a13.893,13.893,0,0,1,9.5-3.378A13.221,13.221,0,0,1,717.217,364q2.552,2.727,3.1,8.179H693.291A12.71,12.71,0,0,1,697.552,363.141Z"/>
</svg>
